<svg width="27" height="48" viewBox="0 0 27 48" fill="none" xmlns="http://www.w3.org/2000/svg">
<path d="M26.6105 0.168431L26.2736 48L0 47.8316L0.336811 0L26.6105 0.168431Z" fill="#E2FB4A"/>
<path d="M2.52658 45.1369L23.916 45.3053L24.2529 2.8632L2.8634 2.69482L2.52658 45.1369ZM19.3687 5.22114C19.3687 6.56851 20.3792 7.57903 21.7266 7.74746C21.895 7.74746 21.895 7.74746 22.0634 7.74746L21.895 40.5896C21.7266 40.5896 21.7266 40.5896 21.5581 40.5896C20.2108 40.5896 19.2002 41.6001 19.0318 42.9474C19.0318 43.1159 19.0318 43.1158 19.0318 43.2843H7.24235C7.24235 43.1158 7.24235 43.1159 7.24235 42.9474C7.24235 41.6001 6.23184 40.5896 4.88447 40.4211C4.71605 40.4211 4.71603 40.4211 4.54761 40.4211L4.71604 7.57902C4.88446 7.57902 4.88448 7.57902 5.0529 7.57902C6.40027 7.57902 7.4108 6.56851 7.57922 5.22114C7.57922 5.05272 7.57922 5.0527 7.57922 4.88428L19.3687 5.05271C19.3687 4.88429 19.3687 5.05272 19.3687 5.22114Z" fill="white"/>
<path d="M14.9892 22.7369C14.8208 23.0737 14.6523 23.2422 14.4839 23.7474H17.1787C17.1787 23.2422 17.0103 22.9053 16.8419 22.7369C16.6734 22.5685 16.3366 22.4 15.9997 22.4C15.4945 22.4 15.1576 22.5685 14.9892 22.7369Z" fill="white"/>
<path d="M10.6103 25.2632C10.9471 25.2632 11.1155 25.0948 11.4524 24.9263C11.6208 24.7579 11.7892 24.4211 11.9576 24.0842H9.4313C9.4313 24.5895 9.59974 24.9263 9.76816 25.0948C10.105 25.0948 10.2734 25.2632 10.6103 25.2632Z" fill="white"/>
<path d="M5.55781 23.7474C5.55781 28.1263 8.92624 31.4947 13.3052 31.6631C17.6841 31.6631 21.0525 28.2947 21.2209 23.9158C21.2209 19.5368 17.8526 16.1684 13.4736 16C9.09467 16 5.55781 19.5369 5.55781 23.7474ZM17.8525 21.2211C18.3578 21.7263 18.6946 22.4 18.8631 23.2421H20.2105V24.7579H18.8631C18.8631 25.2631 18.6946 25.7684 18.6946 26.2737C18.5262 26.779 18.5262 27.1158 18.3578 27.2842L16.6736 26.6105C16.842 26.4421 16.842 26.1052 17.0104 25.7684C17.1788 25.4316 17.1789 25.0947 17.1789 24.5895H14.1473C13.9789 24.9263 13.8104 25.2631 13.642 25.6C13.4736 25.9368 13.3052 26.1052 12.9683 26.4421C12.7999 26.6105 12.4631 26.9474 12.1262 26.9474C11.7894 27.1158 11.4526 27.1158 10.9473 27.1158C10.1052 27.1158 9.4315 26.9473 8.92623 26.4421C8.42097 25.9368 8.08413 25.4316 8.08413 24.5895H6.73678V23.0737H8.08413C8.08413 22.5684 8.25256 22.2316 8.25256 21.8947C8.42098 21.5579 8.42095 21.2211 8.58937 21.0526L10.2736 21.5579C10.2736 21.7263 10.1052 21.8947 10.1052 22.2315C10.1052 22.5684 9.93677 22.7368 9.93677 23.0737H12.7999C12.9683 22.7368 13.1368 22.4 13.3052 22.0632C13.4736 21.7263 13.642 21.3895 13.9789 21.2211C14.1473 21.0526 14.4841 20.7158 14.821 20.5473C15.1578 20.3789 15.4947 20.379 15.9999 20.379C16.5052 20.379 17.3473 20.7158 17.8525 21.2211Z" fill="white"/>
</svg>
