<svg width="30" height="30" viewBox="0 0 30 30" fill="none" xmlns="http://www.w3.org/2000/svg">
<rect width="30" height="30" rx="5" fill="#1078FF"/>
<path fill-rule="evenodd" clip-rule="evenodd" d="M16.2923 18.2307V29.5845C16.2923 29.7691 16.4308 29.8614 16.5692 29.8614H20.7692C20.9539 29.8614 21.0461 29.723 21.0461 29.5845V18.046H24.0923C24.2308 18.046 24.3692 17.9076 24.3692 17.7691L24.6462 14.3076C24.6462 14.123 24.5077 13.9845 24.3692 13.9845H21.0461V11.5383C21.0461 10.9383 21.5077 10.4768 22.1077 10.4768H24.4615C24.6462 10.4768 24.7385 10.3383 24.7385 10.1999V6.73834C24.7385 6.55372 24.6 6.46143 24.4615 6.46143H20.4923C18.1385 6.46143 16.2462 8.35374 16.2462 10.7076V14.0768H14.1231C13.9385 14.0768 13.8462 14.2153 13.8462 14.3537V17.8153C13.8462 17.9999 13.9846 18.0922 14.1231 18.0922H16.2462V18.2307H16.2923Z" fill="white"/>
</svg>
