<svg width="21" height="30" viewBox="0 0 21 30" fill="none" xmlns="http://www.w3.org/2000/svg">
<path d="M13.6279 0.498961C12.6299 0.18711 11.5697 0 10.4782 0C7.26612 0 4.39709 1.4657 2.46362 3.7422L7.42204 7.88981L13.6279 0.498961Z" fill="#1A73E8"/>
<path d="M2.46362 3.74219C0.93555 5.55092 0 7.92098 0 10.4782C0 12.4428 0.405405 14.0332 1.02911 15.4678L7.39085 7.92098L2.46362 3.74219Z" fill="#EA4335"/>
<path d="M10.4782 6.4553C12.6923 6.4553 14.4699 8.23285 14.4699 10.447C14.4699 11.4449 14.1268 12.3493 13.5343 13.0353C13.5343 13.0353 16.684 9.26195 19.7713 5.6133C18.4927 3.18087 16.3098 1.30977 13.6591 0.467773L7.42206 7.88981C8.13931 7.01663 9.23079 6.4553 10.4782 6.4553Z" fill="#4285F4"/>
<path d="M10.4782 14.47C8.26405 14.47 6.4865 12.6925 6.4865 10.4783C6.4865 9.51158 6.82953 8.60721 7.42205 7.92114L1.0603 15.4679C2.12059 17.8692 3.92933 19.8026 5.80043 22.2351L13.5343 13.0355C12.8171 13.9087 11.6944 14.47 10.4782 14.47Z" fill="#FBBC04"/>
<path d="M13.3784 24.761C16.8711 19.3036 20.9563 16.8088 20.9563 10.4782C20.9563 8.73185 20.5198 7.11023 19.7713 5.64453L5.80042 22.235C6.39293 23.0146 6.98545 23.8254 7.57796 24.761C9.69854 28.0354 9.10603 30 10.4782 30C11.8503 30 11.2578 28.0354 13.3784 24.761Z" fill="#34A853"/>
</svg>
