<svg width="30" height="30" viewBox="0 0 30 30" fill="none" xmlns="http://www.w3.org/2000/svg">
<rect width="30" height="30" rx="5" fill="#1078FF"/>
<path fill-rule="evenodd" clip-rule="evenodd" d="M14.9429 21.9069H16.3738C16.3738 21.9069 16.806 21.8595 17.0267 21.6216C17.2298 21.4032 17.2233 20.9931 17.2233 20.9931C17.2233 20.9931 17.1953 19.0731 18.0864 18.7904C18.9649 18.5119 20.0929 20.646 21.2885 21.4666C22.1926 22.0876 22.8796 21.9515 22.8796 21.9515L26.0764 21.9069C26.0764 21.9069 27.7488 21.8039 26.9558 20.489C26.8908 20.3815 26.494 19.5164 24.5789 17.7387C22.5744 15.8782 22.8429 16.1792 25.2575 12.9609C26.728 11.0009 27.3159 9.80433 27.1323 9.29184C26.9571 8.80372 25.8756 8.93273 25.8756 8.93273L22.2761 8.95516C22.2761 8.95516 22.0093 8.91876 21.8114 9.03705C21.618 9.15307 21.4935 9.42345 21.4935 9.42345C21.4935 9.42345 20.9239 10.9401 20.164 12.23C18.5612 14.9517 17.9204 15.0953 17.6584 14.9264C17.0491 14.5325 17.2012 13.344 17.2012 12.4997C17.2012 9.86218 17.6012 8.76244 16.4222 8.47776C16.0309 8.38319 15.743 8.3208 14.7424 8.31072C13.4581 8.2974 12.371 8.31462 11.7555 8.6162C11.346 8.81672 11.0301 9.26356 11.2225 9.28924C11.4604 9.32109 11.9992 9.4345 12.2849 9.82351C12.6537 10.3253 12.6407 11.4523 12.6407 11.4523C12.6407 11.4523 12.8526 14.5572 12.1458 14.9429C11.6606 15.2075 10.995 14.6673 9.5661 12.1981C8.83392 10.9333 8.28113 9.53525 8.28113 9.53525C8.28113 9.53525 8.17453 9.27396 7.98442 9.13422C7.75368 8.96491 7.4313 8.91096 7.4313 8.91096L4.01088 8.93338C4.01088 8.93338 3.49741 8.94768 3.30892 9.17094C3.14123 9.36951 3.2956 9.78028 3.2956 9.78028C3.2956 9.78028 5.97344 16.0453 9.00551 19.2024C11.7857 22.0971 14.9429 21.9069 14.9429 21.9069Z" fill="white"/>
</svg>
