<svg width="45" height="54" viewBox="0 0 45 54" fill="none" xmlns="http://www.w3.org/2000/svg">
<path d="M22.5 54C24.4709 50.5005 47.6912 48.0933 43.4293 32.2746C37.1365 8.91065 45 6.30118 45 6.30118C42.5589 3.39839 38.8473 2.02284 35.1556 2.56901C34.1652 2.72073 32.9847 2.8421 31.574 2.93313C29.9133 3.04438 24.0707 2.19479 22.5 0C20.9293 2.18468 15.0867 3.03427 13.426 2.93313C12.0153 2.8421 10.8348 2.71061 9.84437 2.56901C6.15273 2.02284 2.44109 3.39839 0 6.30118C0 6.30118 7.87351 8.91065 1.57071 32.2746C-2.69119 48.1034 20.5291 50.5005 22.5 54Z" fill="#3985DE"/>
<path d="M16.0178 22.0411L22.1471 35.7755C22.3278 36.1805 22.9072 36.1672 23.0691 35.7544L32.3897 11.9999" stroke="#F9FC84" stroke-width="3" stroke-linecap="round"/>
</svg>
