<svg width="55" height="54" viewBox="0 0 55 54" fill="none" xmlns="http://www.w3.org/2000/svg">
<path d="M18.9525 40.4C18.9865 40.3684 19.0255 40.3368 19.0619 40.3003L39.9992 19.3594C40.15 19.2061 40.274 19.0553 40.3761 18.8997C43.9698 20.4392 48.2881 19.7461 51.218 16.8129C54.0774 13.9526 54.8092 9.77175 53.416 6.23294L47.0286 12.6223L41.4824 7.07448L47.8699 0.685171C44.3321 -0.708461 40.1524 0.0236164 37.293 2.88384C34.3631 5.81704 33.6702 10.1366 35.2068 13.7289C35.0537 13.8335 34.9005 13.9551 34.7473 14.1059L13.8124 35.0468C13.7905 35.0687 13.7759 35.0906 13.7541 35.1125C10.1579 33.5559 5.82021 34.2442 2.88301 37.1847C0.0236095 40.0449 -0.708254 44.2258 0.684972 47.7646L7.07242 41.3753L12.6186 46.9231L6.23356 53.3124C9.7689 54.706 13.9486 53.974 16.808 51.1137C19.7038 48.217 20.4162 43.9656 18.9525 40.4Z" fill="#C6C6C6"/>
<path d="M18.9525 40.4C18.9865 40.3684 19.0255 40.3368 19.0619 40.3003L21.7195 37.6444C21.4715 37.7538 21.2235 37.856 20.9633 37.9387C17.9678 38.9115 15.67 37.1944 13.7954 35.0711C13.7832 35.0833 13.7687 35.0979 13.7565 35.1149C11.5512 34.1615 9.06621 34.0545 6.79766 34.7914C8.17387 34.7793 9.53547 35.0736 10.7682 35.8251C13.1267 37.2601 14.7826 39.7896 15.6701 42.3676C16.098 43.6056 16.38 44.9822 15.901 46.2494C15.4026 47.5603 14.52 48.6791 13.4526 49.5814C11.4612 51.2694 8.9884 52.5171 6.42808 53.1203L6.23356 53.3148C9.7689 54.7085 13.9486 53.9764 16.808 51.1161C19.7038 48.217 20.4162 43.9656 18.9525 40.4Z" fill="#AEAEAE"/>
<path d="M35.2068 13.7264C35.0537 13.831 34.9005 13.9526 34.7473 14.1034L31.7687 17.0828C32.204 16.8445 32.6489 16.6256 33.1012 16.4359C34.4385 15.8716 36.0627 15.5311 37.4632 16.0808C38.82 16.6134 39.7002 17.7225 40.308 18.9872C40.3299 18.9556 40.3542 18.9264 40.3761 18.8972C43.9698 20.4368 48.2881 19.7436 51.218 16.8104C52.035 15.9932 52.672 15.0641 53.1413 14.0791C52.2757 14.8136 51.359 15.4776 50.3791 16.037C48.3172 17.2166 45.8323 17.9098 43.52 17.0245C42.2386 16.5332 41.1201 15.7087 40.1962 14.6993C39.1944 13.6024 38.2194 12.3401 37.879 10.8638C37.3198 8.44378 38.1708 5.74165 40.0965 4.14129C41.694 2.81332 43.6416 2.48255 45.4724 3.07843L47.865 0.685171C44.3272 -0.708461 40.1475 0.0236164 37.2881 2.88384C34.3607 5.81461 33.6702 10.1366 35.2068 13.7264Z" fill="#AEAEAE"/>
<path d="M18.9039 36.8223C18.527 37.1993 17.8438 37.1336 17.3794 36.6691C16.915 36.2045 16.8493 35.526 17.2262 35.1441L35.1947 17.1728C35.5715 16.7958 36.2548 16.8615 36.7168 17.3236C37.1812 17.7882 37.2468 18.4692 36.8699 18.8486L18.9039 36.8223Z" fill="#AEAEAE"/>
<path d="M28.902 28.7986L33.4659 24.2358L36.2426 27.0134L34.7059 28.5505L52.1273 45.977C52.1273 45.977 54.4907 48.341 51.466 51.3667C48.4413 54.3947 46.0779 52.0282 46.0779 52.0282L28.654 34.6017L27.1174 36.1389L24.3406 33.3613L28.902 28.7986Z" fill="#09458B"/>
<path d="M5.03727 1.08887L3.0678 3.05893L1.09589 5.02898C1.09589 5.02898 4.21301 8.71128 6.8171 8.64805L27.9319 29.769L29.7677 27.9303L8.65286 6.80933C8.71608 4.20448 5.03727 1.08887 5.03727 1.08887Z" fill="#C6C6C6"/>
<path d="M28.6176 29.0807L2.83437 3.29004L1.09589 5.02903C1.09589 5.02903 4.21301 8.71133 6.8171 8.64809L27.9319 29.769L28.6176 29.0807Z" fill="#AEAEAE"/>
<path d="M33.2009 31.1603L49.0734 47.0375" stroke="#3985DE" stroke-width="6.9068" stroke-miterlimit="10"/>
<path d="M31.2776 33.1133L47.1477 48.9905" stroke="#3985DE" stroke-width="6.9068" stroke-miterlimit="10"/>
</svg>
