<svg width="55" height="54" viewBox="0 0 55 54" fill="none" xmlns="http://www.w3.org/2000/svg">
<path d="M49.8121 27.2849C49.8121 26.5956 49.7773 25.9187 49.7151 25.2443L54.2579 24.0547L52.2229 16.2704L47.5904 17.4824C46.6152 15.4467 45.3439 13.5803 43.8338 11.9378L46.8068 8.08544L40.4403 3.16798L37.43 7.07007C35.482 6.07464 33.3748 5.35544 31.1556 4.95975V0H23.1123V4.95975C21.0026 5.33553 18.9924 6.00247 17.129 6.92076L14.1759 2.97635L7.73477 7.80174L10.658 11.7038C9.54843 12.8785 8.55578 14.1675 7.71488 15.5587L3.1969 13.8963L0.417954 21.4467L4.84885 23.0767C4.5926 24.4405 4.45327 25.8441 4.45327 27.2825C4.45327 27.7802 4.47567 28.2729 4.50552 28.7632L0.00497437 29.9428L2.04005 37.7271L6.44109 36.5749C7.39643 38.6976 8.66275 40.6487 10.1928 42.3658L7.45613 45.9121L13.8226 50.8295L16.517 47.338C18.5496 48.4156 20.7662 49.192 23.1098 49.6126V53.9975H31.1531V49.6126C33.3822 49.2119 35.4944 48.4902 37.4474 47.4898L40.092 51.0211L46.5306 46.1983L43.8487 42.6172C44.9857 41.3779 45.9833 40.0091 46.8217 38.5384L51.0685 40.1037L53.8474 32.5533L49.5111 30.9581C49.7051 29.7611 49.8121 28.5342 49.8121 27.2849ZM27.1302 42.4504C18.5993 42.4504 11.6855 35.5321 11.6855 26.9988C11.6855 18.4654 18.6018 11.552 27.1302 11.552C35.6586 11.552 42.5749 18.4679 42.5749 26.9988C42.5749 35.5321 35.6586 42.4504 27.1302 42.4504Z" fill="#0F5298"/>
<path d="M43.9582 42.4877C40.5249 42.5101 37.1115 42.0149 33.8873 40.8975C31.8472 41.8905 29.5559 42.4504 27.1302 42.4504C18.5993 42.4504 11.6855 35.5321 11.6855 26.9987C11.6855 22.9025 13.2827 19.1796 15.885 16.4147C15.9149 14.837 16.1264 13.2642 16.5369 11.7312C17.0668 9.7503 17.8778 7.88134 18.9128 6.14181C18.3033 6.37823 17.7062 6.63705 17.124 6.92324L14.1709 2.97882L7.7323 7.80421L10.6531 11.7063C9.54347 12.8809 8.5533 14.17 7.7124 15.5611L3.19442 13.8988L0.41547 21.4492L4.84387 23.0792C4.58762 24.4429 4.44831 25.8465 4.44831 27.2849C4.44831 27.7826 4.47069 28.2754 4.50055 28.7656L0 29.9452L2.03757 37.7296L6.43861 36.5773C7.39146 38.7001 8.66026 40.6512 10.1903 42.3683L7.45365 45.9145L13.8201 50.832L16.5145 47.3405C18.5496 48.4181 20.7663 49.1945 23.1073 49.6151V54H31.1506V49.6151C33.3797 49.2144 35.4944 48.4927 37.4449 47.4923L40.0895 51.0236L46.5281 46.2007L43.8462 42.6196C43.886 42.5749 43.9209 42.53 43.9582 42.4877Z" fill="#3985DE"/>
</svg>
