<svg width="54" height="45" viewBox="0 0 54 45" fill="none" xmlns="http://www.w3.org/2000/svg">
<path d="M51.5179 33.5967C51.6624 32.3888 51.7464 31.1576 51.7464 29.9031C51.7464 14.3057 40.163 1.65796 25.8755 1.65796C11.588 1.65796 0.0023365 14.3033 0.0023365 29.9031C0.0023365 31.1576 0.0862525 32.3865 0.230782 33.5967C0.230782 33.5967 0.284387 45.7804 35.6243 44.6728C35.6243 44.6728 62.0569 42.5438 51.5179 33.5967Z" fill="#FDED99"/>
<path d="M51.5179 33.5967C51.6624 32.3888 51.7463 31.1576 51.7463 29.9031C51.7463 27.5923 51.4852 25.3468 51.0074 23.1968C50.8022 25.0063 50.3523 26.8974 48.879 28.103C47.3778 29.3318 45.5222 30.05 43.5454 29.9498C41.8017 29.8611 39.9392 29.2992 38.9508 27.7672C37.8062 25.9997 37.5311 23.8171 37.3143 21.7721C36.7432 16.2994 35.4494 10.9782 34.2 5.62203C33.6988 4.67765 33.2489 3.71461 32.8922 2.71659C30.6613 2.03104 28.3069 1.65796 25.8755 1.65796C24.3906 1.65796 22.9359 1.80486 21.5209 2.06602C23.3066 4.5937 24.3626 7.67868 24.9897 10.7054C25.5748 13.5338 25.8872 16.402 26.1063 19.2771C26.3044 21.8397 26.6634 24.5073 25.9851 27.035C25.372 29.3248 23.9267 31.2019 21.486 31.7522C18.8658 32.3399 16.0195 31.8525 13.5998 30.7566C11.1148 29.6326 9.05175 27.9724 8.00275 25.4307C6.86516 22.6699 6.79989 19.6362 7.59947 16.7751C8.9725 11.8689 12.0706 7.44083 15.8097 3.87784C6.52015 8.16369 0 18.2021 0 29.9031C0 31.1576 0.083916 32.3865 0.228446 33.5967C0.228446 33.5967 0.270403 42.8983 23.8567 44.5072C23.3742 44.0432 23.0175 43.4882 22.88 42.812C21.9172 38.0598 28.6658 37.8149 31.8012 37.5748C35.0974 37.3229 38.3937 36.726 41.6736 36.3063C45.2215 35.8539 48.7788 35.3199 52.1729 34.1936C51.9701 33.9954 51.758 33.7996 51.5179 33.5967Z" fill="#FCD384"/>
<path d="M6.81155 35.0121C6.81155 35.0121 7.50621 35.138 8.72539 35.3175C9.9469 35.4994 11.6929 35.7116 13.7956 35.9098C14.8423 36.0287 15.9845 36.0894 17.1874 36.185C18.3949 36.2293 19.6654 36.3249 20.9801 36.3505C22.2949 36.4018 23.6539 36.4205 25.0363 36.4135C26.4186 36.4415 27.8197 36.3832 29.223 36.3412C30.6263 36.3365 32.025 36.1966 33.405 36.1337C34.7827 36.0497 36.1348 35.9005 37.4472 35.7932C38.7596 35.679 40.0161 35.4854 41.219 35.3548C42.4218 35.2336 43.5455 35.0261 44.5875 34.8558C45.6248 34.667 46.5899 34.5597 47.4314 34.3871C48.273 34.2216 49.0096 34.0747 49.6134 33.9558C50.8279 33.7296 51.5226 33.6013 51.5226 33.6013C51.5226 33.6013 50.8465 33.8088 49.6646 34.1679C49.0702 34.3428 48.3499 34.5527 47.52 34.7952C46.6948 35.047 45.7413 35.2406 44.7063 35.4761C43.669 35.7046 42.5501 35.9751 41.3472 36.164C40.1443 36.3598 38.8855 36.635 37.5638 36.7726C36.242 36.9102 34.883 37.1293 33.4889 37.2133C32.0949 37.2926 30.6823 37.4441 29.2649 37.4628C27.8453 37.4931 26.428 37.5374 25.0316 37.4954C23.6353 37.4954 22.2646 37.4162 20.9382 37.3345C19.6094 37.2879 18.3343 37.106 17.1221 36.9988C15.9146 36.8379 14.77 36.7143 13.721 36.5371C12.6697 36.3855 11.7139 36.2036 10.87 36.0217C10.0238 35.8562 9.29185 35.6743 8.69042 35.5367C7.4829 35.2312 6.81155 35.0121 6.81155 35.0121Z" fill="#FCCC84"/>
<path d="M36.3726 36.2363C39.748 14.0281 32.8106 2.36912 32.8106 2.36912C31.8712 0.417394 28.3348 0 28.3348 0H24.2181C18.8122 0.184213 20.5652 3.06166 20.5652 3.06166C20.5652 3.06166 28.3372 13.3706 28.1367 36.9405L36.3726 36.2363Z" fill="#F9FC84"/>
<path d="M20.1013 2.36902C20.1013 2.36902 20.4696 2.8004 21.0361 3.6142C21.3065 4.02926 21.6561 4.52361 22.0058 5.11822C22.3765 5.70583 22.7681 6.37972 23.1574 7.13989C23.5607 7.89306 23.9476 8.73019 24.3672 9.61394C24.7472 10.514 25.1971 11.4467 25.5375 12.4587C25.9174 13.4591 26.2741 14.5014 26.5795 15.581C26.9268 16.6467 27.1576 17.7659 27.442 18.8689C27.7031 19.9765 27.8639 21.1097 28.0761 22.208C28.2532 23.3156 28.3395 24.4162 28.4701 25.4749C28.575 26.5359 28.5819 27.5688 28.6286 28.5459C28.6938 29.5206 28.6216 30.444 28.6192 31.2951C28.5959 32.1462 28.6052 32.925 28.5097 33.6129C28.4374 34.3008 28.3745 34.9 28.3232 35.392C28.2066 36.3737 28.139 36.9357 28.139 36.9357C28.139 36.9357 28.1274 36.3691 28.1064 35.3804C28.1017 34.8884 28.0994 34.2891 28.0947 33.6012C28.1111 32.9157 28.0108 32.1438 27.9922 31.3021C27.9385 30.4603 27.9479 29.5485 27.8173 28.5902C27.7148 27.6318 27.6075 26.6245 27.4956 25.5798C27.3394 24.5422 27.1786 23.4719 27.0154 22.3829C26.794 21.3033 26.6215 20.198 26.358 19.1114C26.09 18.0271 25.8778 16.9265 25.5468 15.8748C25.3999 15.3455 25.2508 14.8185 25.1062 14.2985C24.9407 13.7855 24.7775 13.2795 24.6144 12.7805C23.9686 10.7845 23.2786 8.94704 22.5956 7.40805C22.2529 6.64088 21.9452 5.92969 21.6468 5.31409C21.3648 4.68917 21.0757 4.16451 20.8542 3.7238C20.388 2.85637 20.1013 2.36902 20.1013 2.36902Z" fill="#FCCC84"/>
<path d="M32.8106 2.36902C32.8106 2.36902 33.123 2.81439 33.5729 3.65151C33.7897 4.07357 34.0531 4.5889 34.3212 5.19517C34.6102 5.79444 34.8783 6.49398 35.1627 7.25881C35.6942 8.80014 36.2816 10.6236 36.6989 12.6243C36.9227 13.6223 37.0859 14.6646 37.2654 15.7256C37.3819 16.7912 37.5428 17.8709 37.6267 18.9575C37.6803 20.0441 37.7876 21.1307 37.7899 22.2034C37.7969 23.2737 37.8155 24.33 37.7736 25.349C37.7316 26.368 37.6617 27.352 37.5987 28.2824C37.4938 29.2104 37.3959 30.0849 37.305 30.8963C37.2234 31.7055 37.1185 32.4446 36.981 33.0929C36.8598 33.7411 36.7525 34.3078 36.6663 34.7741C36.4868 35.7045 36.3702 36.2338 36.3702 36.2338C36.3702 36.2338 36.3982 35.6928 36.4495 34.7461C36.4821 34.2751 36.5218 33.7015 36.5661 33.0462C36.622 32.391 36.6406 31.6495 36.6756 30.8427C36.7082 30.0359 36.7455 29.1638 36.7828 28.2404C36.7782 27.3147 36.7665 26.3423 36.7875 25.335C36.8015 24.33 36.7176 23.2923 36.7082 22.2383C36.6943 21.182 36.5731 20.1164 36.5124 19.0484C36.4425 17.9805 36.2956 16.9171 36.1954 15.8702C36.0252 14.8325 35.9226 13.7972 35.7315 12.8108C35.5427 11.8268 35.3935 10.8661 35.1813 9.97071C35.0019 9.06596 34.7641 8.22885 34.5636 7.45002C34.3235 6.68286 34.144 5.96233 33.9319 5.3444C33.7361 4.71715 33.5379 4.18316 33.3724 3.74012C33.039 2.86103 32.8106 2.36902 32.8106 2.36902Z" fill="#FCCC84"/>
</svg>
