<svg width="86" height="54" viewBox="0 0 86 54" fill="none" xmlns="http://www.w3.org/2000/svg">
<path d="M40.2435 35.7529V31.5035V23.7548V19.2555V11.7567C40.2435 5.25773 50.4919 0.00855063 62.74 0.258511C75.238 0.258511 85.2364 5.75761 85.2364 12.2566V20.0054V26.0044V30.0038V36.2528V44.0016C85.2364 50.5005 74.988 54 62.74 54C50.2419 54 40.2435 50.2505 40.2435 43.7516V35.7529Z" fill="url(#paint0_linear_19_115)"/>
<path d="M85.4863 12.0067C85.4863 18.5057 75.2379 23.7548 62.9898 23.5048C50.4918 23.5048 40.4934 18.0057 40.4934 11.5068C40.4934 5.00779 50.7418 -0.241388 62.9898 0.0085719C75.4878 0.0085719 85.4863 5.50774 85.4863 12.0067Z" fill="#F9FC84"/>
<path d="M62.99 23.0049C50.7419 23.0049 40.9935 17.7557 40.7435 11.2568V11.5068C40.7435 18.0057 50.7419 23.5048 63.24 23.5048C75.738 23.5048 85.7364 18.5057 85.7364 12.0067V11.7567C85.2365 18.0057 75.238 23.2549 62.99 23.0049Z" fill="#D2AC25"/>
<path d="M63.2398 0.758435C75.4878 0.758435 85.2363 6.00755 85.4863 12.5065V12.2565C85.4863 5.75758 75.4878 0.258484 62.9898 0.258484C50.4918 0.258484 40.4934 5.2577 40.4934 11.7567C40.4934 12.0066 40.4934 12.0066 40.4934 12.2565C40.9933 5.75758 50.9917 0.508475 63.2398 0.758435Z" fill="#F9FC84"/>
<path d="M80.7372 12.0067C80.7372 17.2558 72.7384 21.2551 62.74 21.2551C52.9916 21.2551 44.9929 17.0058 44.9929 11.7567C44.9929 6.50751 52.9916 2.50812 62.99 2.50812C72.9884 2.50812 80.9871 6.75749 80.7372 12.0067Z" fill="url(#paint1_linear_19_115)"/>
<path d="M62.99 3.00807C72.7385 3.00807 80.4872 7.25735 80.7372 12.2566V12.0067C80.7372 6.75749 72.7385 2.50812 62.99 2.50812C53.2416 2.50812 45.2428 6.50751 44.9929 11.7567V12.0067C45.4928 6.75749 53.4915 2.75811 62.99 3.00807Z" fill="#D2AC25"/>
<path d="M62.9899 20.7553C53.2415 20.7553 45.4927 16.5059 45.2427 11.5067V11.7567C45.2427 17.0059 53.2415 21.2551 62.9899 21.2551C72.7384 21.2551 80.7371 17.2558 80.9871 12.0067V11.7567C80.4871 16.7559 72.7384 20.7553 62.9899 20.7553Z" fill="#D2AC25"/>
<path d="M62.9899 18.7556C58.2407 18.7556 53.9914 17.2559 51.7417 15.0062C50.7419 14.0064 50.2419 12.7566 50.2419 11.5068C50.2419 7.50743 55.991 4.50793 62.9899 4.50793C70.4887 4.50793 76.2378 7.7574 75.9879 11.7568C75.9879 15.7561 70.2388 18.7556 62.9899 18.7556Z" fill="#D2AC25"/>
<path d="M75.4879 12.0067C75.4879 15.5061 69.9888 18.5056 62.9899 18.5056C56.241 18.5056 50.4919 15.5061 50.7419 12.0067C50.7419 8.50721 56.241 5.50767 63.2399 5.50767C69.9888 5.25771 75.4879 8.25725 75.4879 12.0067Z" fill="#F9FC84"/>
<path d="M75.2379 12.2567C74.738 15.2562 69.4888 17.7558 62.7399 17.7558C56.2409 17.7558 50.7418 15.2562 50.4918 12.2567C50.7418 15.7561 56.2409 18.5057 62.7399 18.5057C69.4888 18.5057 74.9879 15.7561 75.2379 12.2567Z" fill="#D2AC25"/>
<path d="M62.9898 5.7577C69.7388 5.7577 74.9879 8.75723 75.2379 12.0067V11.7567C75.2379 8.25729 69.7388 5.25775 62.9898 5.25775C56.2409 5.25775 50.4918 8.00733 50.4918 11.7567V12.0067C50.9917 8.50727 56.4909 5.7577 62.9898 5.7577Z" fill="#F9FC84"/>
<path d="M61.9901 16.006C61.2402 16.006 60.7403 16.0061 60.2403 15.7561C59.7404 15.7561 59.2405 15.5061 58.9905 15.5061L59.7404 14.2563C59.9904 14.2563 60.2404 14.5063 60.7403 14.5063C61.2402 14.5063 61.4901 14.7562 62.24 14.7562V12.2566C61.7401 12.2566 61.4901 12.0067 60.9902 11.7567C60.7403 11.5068 60.2403 11.5067 59.9904 11.2568C59.7404 11.0068 59.4905 10.7569 59.2405 10.5069C58.9906 10.257 58.9905 10.007 58.9905 9.5071C58.9905 9.00718 59.2405 8.50724 59.7404 8.00732C60.2403 7.75736 60.9902 7.50735 61.9901 7.25739V6.25757H64.2397V7.25739C64.7396 7.25739 65.2396 7.25741 65.7395 7.50737C66.2394 7.50737 66.4894 7.75734 66.9893 7.75734L66.2394 9.00715C65.9894 9.00715 65.7395 8.75717 65.4895 8.75717C65.2396 8.75717 64.7396 8.75717 64.4897 8.75717V11.0068C64.9896 11.0068 65.2396 11.2568 65.7395 11.5067C65.9894 11.7567 66.4894 11.7567 66.7393 12.0067C66.9893 12.2567 67.2392 12.5066 67.4892 12.7565C67.7392 13.0065 67.7391 13.2565 67.7391 13.7564C67.7391 14.5063 67.4892 15.0062 66.7393 15.2562C66.2394 15.7561 65.2396 16.006 64.4897 16.006V17.0059H62.24L61.9901 16.006ZM62.9899 8.75717C62.49 8.75717 61.9901 9.00715 61.9901 9.00715C61.7401 9.25711 61.7401 9.25714 61.7401 9.5071C61.7401 9.75706 61.9901 10.007 62.24 10.2569C62.49 10.5069 62.74 10.5069 63.2399 10.7569L62.9899 8.75717ZM62.9899 14.7562C63.4898 14.7562 63.7398 14.5063 63.9897 14.5063C64.2397 14.2563 64.2397 14.0063 64.2397 13.7564C64.2397 13.5064 63.9897 13.2565 63.7398 13.0065C63.4898 12.7566 63.2399 12.7565 62.7399 12.5066L62.9899 14.7562Z" fill="url(#paint2_linear_19_115)"/>
<path d="M66.9893 12.7565C66.7394 12.5066 66.4894 12.2567 66.2394 12.0067C65.9895 11.7567 65.4895 11.5067 65.2396 11.5067C64.7397 11.2568 64.4897 11.2568 63.9898 11.0068V8.75717C64.2397 8.75717 64.7397 8.75717 64.9896 8.75717C65.2396 8.75717 65.4896 8.75719 65.7395 9.00715L66.4894 7.75734C66.2394 7.75734 65.7395 7.50737 65.2396 7.50737C64.7397 7.50737 64.4897 7.50735 63.7398 7.25739V6.25757H61.4902V7.25739C60.4903 7.25739 59.7405 7.5074 59.2405 8.00732C58.7406 8.25728 58.4907 8.75722 58.4907 9.5071C58.4907 9.75706 58.4907 10.257 58.7406 10.5069C58.9906 10.7569 59.2405 11.0068 59.4905 11.2568C59.7405 11.5067 60.2404 11.5068 60.4904 11.7567C60.9903 12.0067 61.2402 12.0066 61.7402 12.2566V14.7562C61.2402 14.7562 60.7403 14.7563 60.2404 14.5063C59.7405 14.5063 59.4905 14.2563 59.2405 14.2563L58.4907 15.5061C58.7406 15.5061 59.2405 15.7561 59.7405 15.7561C60.2404 15.7561 60.7403 15.756 61.4902 16.006V17.0059H63.7398V16.006C64.7397 16.006 65.4895 15.5061 65.9895 15.2562C66.4894 14.7562 66.9893 14.2563 66.9893 13.7564C67.2393 13.2565 67.2393 13.0065 66.9893 12.7565ZM65.9895 14.7562C65.4895 15.0062 64.7397 15.2562 63.7398 15.5061H63.2399V16.506H62.2401V15.5061H61.7402C60.9903 15.5061 60.4903 15.5061 59.9904 15.2562C59.7405 15.2562 59.7405 15.2562 59.4905 15.2562L59.7405 15.0062C59.9904 15.0062 59.9904 15.0062 60.2404 15.2562C60.7403 15.2562 61.2402 15.5061 61.7402 15.5061H62.2401V12.0067C62.2401 12.0067 61.2402 11.7567 60.7403 11.5067C60.4903 11.2568 59.9904 11.2568 59.7405 11.0068C59.4905 10.7568 59.2405 10.7569 59.2405 10.5069C58.9906 10.257 58.9906 10.2569 58.9906 10.007C58.9906 9.50705 59.2405 9.25711 59.4905 9.00715C59.9904 8.75719 60.7403 8.5072 61.4902 8.5072H61.9901V7.50737H62.99V8.5072H63.4899C63.9898 8.5072 64.4897 8.50721 64.7397 8.75717C64.9896 8.75717 64.9896 8.75717 64.9896 8.75717L64.7397 9.00715C64.4897 9.00715 64.4897 9.00715 64.2398 9.00715C63.9898 9.00715 63.4899 9.00713 63.2399 8.75717H62.74V12.0067H63.2399C63.4899 12.0067 63.9898 12.2566 64.2398 12.5066C64.7397 12.7565 64.9896 12.7566 65.2396 13.0065C65.4895 13.2565 65.7395 13.2564 65.7395 13.5064C65.9895 13.7564 65.9895 13.7564 65.9895 14.0064C66.7393 14.2563 66.4894 14.5062 65.9895 14.7562Z" fill="#D2AC25"/>
<path d="M62.74 47.751C50.2419 47.751 40.2435 42.2519 40.2435 35.7529V43.5016C40.2435 50.0006 50.2419 53.75 62.74 53.75C75.238 53.75 85.2364 50.2506 85.2364 43.7516V36.0028C85.2364 42.7518 75.238 47.751 62.74 47.751Z" fill="url(#paint3_linear_19_115)"/>
<path d="M85.2364 43.2517C85.2364 49.7507 74.988 53.75 62.74 53.5C50.2419 53.5 40.2435 49.5007 40.2435 43.0018V43.7516C40.2435 50.2506 50.2419 54 62.74 54C75.238 54 85.2364 50.5006 85.2364 44.0016V36.2528V43.2517Z" fill="#D2AC25"/>
<path d="M62.74 41.502C50.2419 41.502 40.2435 36.0029 40.2435 29.504V35.753C40.2435 42.2519 50.2419 47.751 62.74 47.751C75.238 47.751 85.2364 42.7518 85.2364 36.0029V37.7526V30.0038C85.2364 36.5028 75.238 41.752 62.74 41.502Z" fill="#F9FC84"/>
<path d="M62.74 35.503C50.2419 35.503 40.2435 30.0038 40.2435 23.5048V31.2536V29.254C40.2435 35.7529 50.2419 41.252 62.74 41.252C75.238 41.252 85.2364 36.2528 85.2364 29.7538V31.7536V24.0048C85.2364 30.5037 75.238 35.7529 62.74 35.503Z" fill="url(#paint4_linear_19_115)"/>
<path d="M62.74 29.5039C50.2419 29.5039 40.2435 24.0048 40.2435 17.5058V23.5048C40.2435 30.0038 50.2419 35.503 62.74 35.503C75.238 35.503 85.2364 30.5037 85.2364 23.7548V25.7545V18.0057C85.4863 24.5047 75.238 29.7539 62.74 29.5039Z" fill="#F8FC39"/>
<path d="M62.9898 23.5048C50.4918 23.5048 40.4934 18.0057 40.4934 11.5067V17.5057C40.4934 24.0047 50.4918 29.5039 62.9898 29.5039C75.4878 29.5039 85.4863 24.5046 85.4863 17.7557V19.7554V12.0067C85.4863 18.5056 75.2379 23.7547 62.9898 23.5048Z" fill="url(#paint5_linear_19_115)"/>
<path d="M85.2364 35.503C84.9864 42.002 74.988 47.2511 62.74 47.0012C50.2419 47.0012 40.2435 41.502 40.2435 35.003V29.504V35.753C40.2435 42.2519 50.2419 47.751 62.74 47.751C75.238 47.751 85.2364 42.7518 85.2364 36.0029V37.7526V35.503Z" fill="#D2AC25"/>
<path d="M62.74 40.7521C50.2419 40.7521 40.2435 35.2529 40.2435 28.754V29.5039C40.2435 36.0029 50.2419 41.252 62.74 41.502C75.238 41.502 85.2364 36.5027 85.2364 30.0038V32.0035V29.5039C85.2364 35.7529 75.238 41.0021 62.74 40.7521Z" fill="#D2AC25"/>
<path d="M62.74 35.003C50.2419 35.003 40.2435 29.5039 40.2435 23.0049V17.7557V23.7548C40.2435 30.2537 50.2419 35.7529 62.74 35.7529C75.238 35.7529 85.2364 30.7537 85.2364 24.0047V26.0044V23.5048C85.2364 29.7538 75.238 35.003 62.74 35.003Z" fill="#D2AC25"/>
<path d="M62.9898 29.004C50.4918 29.004 40.4934 23.5049 40.4934 17.0059V11.7567V17.7557C40.4934 24.2547 50.4918 29.7538 62.9898 29.7538C75.4878 29.7538 85.4863 24.7546 85.4863 18.0057V20.0054V17.5058C85.2363 23.7548 75.2379 29.004 62.9898 29.004Z" fill="#D2AC25"/>
<path d="M22.7463 22.505C10.4982 22.505 0.499838 27.7542 0.249878 34.5031V34.753V41.002C0.249878 48.0009 10.2483 53.75 22.7463 53.75C35.2443 53.75 45.2427 48.2509 45.2427 41.502V43.5017V35.253C45.2427 28.2541 35.2443 22.505 22.7463 22.505Z" fill="url(#paint6_linear_19_115)"/>
<path d="M44.9928 35.2529C44.9928 42.2518 34.7445 47.7509 22.4964 47.501C9.99841 47.501 0 41.7519 0 34.753C0 27.7541 10.2484 22.255 22.4964 22.505C35.2444 22.505 45.2428 28.2541 44.9928 35.2529Z" fill="#F9FC84"/>
<path d="M22.4963 47.0011C10.2483 47.0011 0.499838 41.252 0.249878 34.5031V34.753C0.249878 41.7518 10.2483 47.5009 22.7463 47.5009C35.2443 47.5009 45.2427 42.0018 45.2427 35.2529V35.0029C44.7428 41.7519 34.7444 47.251 22.4963 47.0011Z" fill="#D2AC25"/>
<path d="M22.7464 23.2549C34.9944 23.2549 44.7429 28.754 44.9928 35.503V35.253C44.9928 28.2541 34.9944 22.505 22.4964 22.505C9.99841 22.505 0 28.0041 0 34.753C0 35.003 0 35.003 0 35.253C0.49992 28.5041 10.4983 23.005 22.7464 23.2549Z" fill="#F9FC84"/>
<path d="M40.4936 35.253C40.4936 40.7521 32.4949 45.2514 22.4965 45.0014C12.7481 45.0014 4.74933 40.5021 4.74933 35.003C4.74933 29.5039 12.7481 25.0046 22.7465 25.2546C32.4949 25.2546 40.4936 29.7538 40.4936 35.253Z" fill="url(#paint7_linear_19_115)"/>
<path d="M22.4965 44.5016C12.7481 44.5016 4.99929 40.0022 4.74933 34.7531V35.003C4.74933 40.5022 12.7481 45.0014 22.4965 45.0014C32.245 45.0014 40.2437 40.7521 40.4936 35.253V35.003C39.9937 40.5022 32.245 44.5016 22.4965 44.5016Z" fill="#D2AC25"/>
<path d="M22.4965 42.5018C17.7473 42.5018 13.4979 41.002 11.2483 38.5024C10.2485 37.5026 9.74854 36.2528 9.74854 34.753C9.74854 30.5037 15.4976 27.2542 22.4965 27.2542C29.9953 27.2542 35.7444 30.7537 35.4944 34.753C35.4944 39.2523 29.9953 42.5018 22.4965 42.5018Z" fill="#D2AC25"/>
<path d="M34.9945 35.253C34.9945 39.0024 29.4954 42.0019 22.4965 42.0019C15.7476 42.0019 9.9985 38.7524 10.2485 35.003C10.2485 31.2536 15.7476 28.0042 22.7465 28.2541C29.4954 28.2541 34.9945 31.2536 34.9945 35.253Z" fill="#F9FC84"/>
<path d="M34.9944 35.5029C34.4944 38.7524 29.2453 41.252 22.4963 41.252C15.9974 41.252 10.4983 38.5024 10.2483 35.2529C10.4983 39.0023 15.9974 41.7519 22.4963 42.0019C29.2453 42.0019 34.4944 39.2523 34.9944 35.5029Z" fill="#D2AC25"/>
<path d="M22.7463 28.754C29.4952 28.754 34.7444 31.7536 34.9944 35.503V35.253C34.9944 31.5036 29.4952 28.2542 22.7463 28.2542C15.9974 28.2542 10.2483 31.2536 10.2483 35.003V35.253C10.4983 31.5036 15.9974 28.5041 22.7463 28.754Z" fill="#F9FC84"/>
<path d="M21.4966 39.5023C20.7467 39.5023 20.2468 39.5023 19.7469 39.2523C19.247 39.2523 18.747 39.0023 18.4971 39.0023L19.2469 37.7525C19.4969 37.7525 19.7469 38.0025 20.2468 38.0025C20.7467 38.0025 20.9967 38.2525 21.7466 38.2525V35.5029C21.2466 35.253 20.9967 35.2529 20.4968 35.003C20.2468 34.753 19.7469 34.753 19.4969 34.5031C19.247 34.2531 18.997 34.0031 18.747 33.7532C18.4971 33.5032 18.4971 33.2533 18.4971 32.7533C18.4971 32.0035 18.747 31.5035 19.2469 31.2536C19.7469 30.7536 20.4968 30.5037 21.4966 30.5037V29.2539H23.7462V30.2537C24.2462 30.2537 24.7461 30.2537 25.246 30.5037C25.7459 30.5037 25.9959 30.7537 26.4958 30.7537L25.7459 32.0035C25.496 32.0035 25.246 31.7535 24.996 31.7535C24.7461 31.7535 24.2462 31.7535 23.9962 31.5035V34.0031C24.4961 34.0031 24.7461 34.2531 25.246 34.5031C25.496 34.753 25.9959 34.753 26.2458 35.003C26.4958 35.2529 26.7458 35.5029 26.9957 35.7529C27.2457 36.0028 27.2457 36.2528 27.2457 36.7527C27.2457 37.5026 26.9957 38.0025 26.2458 38.5024C25.7459 39.0023 24.7461 39.2523 23.9962 39.2523V40.5021H21.7466L21.4966 39.5023ZM22.4964 31.7535C21.9965 31.7535 21.4966 32.0035 21.4966 32.0035C21.2466 32.2534 21.2466 32.2534 21.2466 32.5034C21.2466 32.7533 21.4966 33.0033 21.7466 33.2533C21.9965 33.5032 22.2465 33.5032 22.7464 33.7532L22.4964 31.7535ZM22.7464 38.2525C23.2463 38.2525 23.4963 38.0025 23.7462 38.0025C23.9962 37.7526 23.9962 37.5025 23.9962 37.2526C23.9962 37.0026 23.7462 36.7527 23.4963 36.5027C23.2463 36.2528 22.9964 36.0028 22.4964 36.0028L22.7464 38.2525Z" fill="url(#paint8_linear_19_115)"/>
<path d="M26.4958 36.0028C26.2458 35.7528 25.9959 35.5029 25.7459 35.2529C25.4959 35.0029 24.996 34.7529 24.7461 34.7529C24.2461 34.503 23.9962 34.503 23.4963 34.2531V31.7535C23.7462 31.7535 24.2461 31.7535 24.4961 32.0034C24.7461 32.0034 24.996 32.2533 25.246 32.2533L25.9959 31.0035C25.7459 31.0035 25.246 30.7536 24.7461 30.7536C24.2461 30.7536 23.9962 30.7536 23.2463 30.5037V29.5038H20.9967V30.7536C19.9968 30.7536 19.2469 31.0036 18.747 31.5035C18.2471 32.0034 17.9971 32.5034 17.9971 33.0033C17.9971 33.5032 17.9971 33.7531 18.2471 34.0031C18.4971 34.2531 18.747 34.503 18.997 34.7529C19.2469 35.0029 19.7469 35.2529 19.9968 35.2529C20.4967 35.5029 20.7467 35.5029 21.2466 35.7529V38.5024C20.7467 38.5024 20.2468 38.5024 19.7469 38.2525C19.2469 38.2525 18.997 38.0025 18.747 38.0025L17.9971 39.2523C18.2471 39.2523 18.747 39.5023 19.2469 39.5023C19.7469 39.5023 20.2468 39.7522 20.9967 39.7522V40.7521H23.2463V39.5023C24.2461 39.5023 24.996 39.0023 25.4959 38.7523C25.9959 38.2524 26.4958 37.7525 26.4958 37.0027C26.7457 36.7527 26.7457 36.2527 26.4958 36.0028ZM25.7459 38.2525C25.246 38.5024 24.4961 38.7523 23.4963 39.0023H22.9963V40.0021H21.9965V39.0023H21.4966C20.7467 39.0023 20.2468 39.0023 19.7469 38.7523C19.4969 38.7523 19.4969 38.7523 19.2469 38.7523L19.4969 38.5024C19.7469 38.5024 19.7469 38.5024 19.9968 38.7523C20.4967 38.7523 20.9967 39.0023 21.4966 39.0023H21.9965V35.2529C21.9965 35.2529 20.9967 34.7529 20.4967 34.7529C20.2468 34.503 19.7469 34.503 19.4969 34.2531C19.2469 34.0031 18.997 34.0031 18.997 33.7531C18.747 33.5032 18.747 33.2532 18.747 33.0033C18.747 32.5034 18.997 32.2534 19.2469 32.0034C19.7469 31.7535 20.4967 31.5035 21.2466 31.2535H21.7465V30.2537H22.7464V31.2535H23.2463C23.7462 31.2535 24.2461 31.2535 24.4961 31.5035C24.7461 31.5035 24.7461 31.5035 24.7461 31.5035L24.4961 31.7535C24.2461 31.7535 24.2461 31.7535 23.9962 31.7535C23.7462 31.7535 23.2463 31.7535 22.9963 31.5035H22.4964V35.0029H22.9963C23.4963 35.0029 23.7462 35.2529 23.9962 35.5029C24.4961 35.7528 24.7461 35.7528 24.996 36.0028C25.246 36.2527 25.4959 36.5027 25.4959 36.5027C25.7459 36.7527 25.7459 36.7527 25.7459 37.0027C26.2458 37.5026 25.9959 38.0025 25.7459 38.2525Z" fill="#D2AC25"/>
<path d="M22.4964 47.751C9.99841 47.751 0 42.0019 0 35.003V41.252C0 48.2509 9.99841 54 22.4964 54C34.9944 54 44.9928 48.5009 44.9928 41.7519V43.7516V35.5029C44.9928 42.2519 34.9944 47.751 22.4964 47.751Z" fill="url(#paint9_linear_19_115)"/>
<path d="M22.4964 53.2501C9.99841 53.2501 0 47.501 0 40.5021V35.003V41.252C0 48.2509 9.99841 54 22.4964 54C34.9944 54 44.9928 48.5009 44.9928 41.7519V43.7516V41.002C44.9928 48.0009 34.7445 53.5001 22.4964 53.2501Z" fill="#D2AC25"/>
<defs>
<linearGradient id="paint0_linear_19_115" x1="62.8827" y1="53.995" x2="62.8827" y2="0.00530076" gradientUnits="userSpaceOnUse">
<stop stop-color="#F9FC84"/>
<stop offset="1" stop-color="#F9FF1F"/>
</linearGradient>
<linearGradient id="paint1_linear_19_115" x1="63.0157" y1="21.1769" x2="63.0157" y2="2.47112" gradientUnits="userSpaceOnUse">
<stop stop-color="#F9FC84"/>
<stop offset="0.4258" stop-color="#FBFF35"/>
<stop offset="1" stop-color="#EBEF10"/>
</linearGradient>
<linearGradient id="paint2_linear_19_115" x1="63.0236" y1="17.1284" x2="63.0236" y2="6.49053" gradientUnits="userSpaceOnUse">
<stop stop-color="#F9FC84"/>
<stop offset="0.3557" stop-color="#F4F84D"/>
<stop offset="0.6774" stop-color="#E3E725"/>
<stop offset="1" stop-color="#EDF114"/>
</linearGradient>
<linearGradient id="paint3_linear_19_115" x1="62.7824" y1="53.995" x2="62.7824" y2="35.7582" gradientUnits="userSpaceOnUse">
<stop stop-color="#F9FC84"/>
<stop offset="1" stop-color="#EAEE19"/>
</linearGradient>
<linearGradient id="paint4_linear_19_115" x1="62.8802" y1="41.5597" x2="62.8802" y2="23.5826" gradientUnits="userSpaceOnUse">
<stop stop-color="#F9FC84"/>
<stop offset="1" stop-color="#E3E72A"/>
</linearGradient>
<linearGradient id="paint5_linear_19_115" x1="62.9961" y1="29.6061" x2="62.9961" y2="11.6239" gradientUnits="userSpaceOnUse">
<stop stop-color="#F9FC84"/>
<stop offset="1" stop-color="#C1C525"/>
</linearGradient>
<linearGradient id="paint6_linear_19_115" x1="0.0719063" y1="38.2565" x2="45.1042" y2="38.2565" gradientUnits="userSpaceOnUse">
<stop stop-color="#F9FC84"/>
<stop offset="0.4157" stop-color="#E7EB3C"/>
<stop offset="0.484375" stop-color="#ACAF06"/>
<stop offset="1" stop-color="#F9FC84"/>
</linearGradient>
<linearGradient id="paint7_linear_19_115" x1="22.609" y1="45.0304" x2="22.609" y2="25.1361" gradientUnits="userSpaceOnUse">
<stop stop-color="#F9FC84"/>
<stop offset="0.4258" stop-color="#F9FE29"/>
<stop offset="1" stop-color="#F4FA18"/>
</linearGradient>
<linearGradient id="paint8_linear_19_115" x1="22.6182" y1="40.7306" x2="22.6182" y2="29.4091" gradientUnits="userSpaceOnUse">
<stop stop-color="#FAFF18"/>
<stop offset="1" stop-color="#F9FE20"/>
</linearGradient>
<linearGradient id="paint9_linear_19_115" x1="22.5882" y1="53.9992" x2="22.5882" y2="34.8745" gradientUnits="userSpaceOnUse">
<stop stop-color="#F9FC84"/>
<stop offset="1" stop-color="#DCE022"/>
</linearGradient>
</defs>
</svg>
