<svg width="47" height="54" viewBox="0 0 47 54" fill="none" xmlns="http://www.w3.org/2000/svg">
<path d="M41.0069 4.88184H5.2573C2.36579 4.88184 0 7.24762 0 10.1391V44.4243C0 47.3158 2.36579 49.6816 5.2573 49.6816H41.0069C43.8984 49.6816 46.2642 47.3158 46.2642 44.4243V10.1391C46.2642 7.24762 43.8984 4.88184 41.0069 4.88184ZM41.0069 44.4243H5.2573V10.1391H41.0069V44.4243Z" fill="#F9FC84"/>
<path d="M5.25729 44.4243H41.0069V10.1392H5.25729V44.4243Z" fill="white"/>
<path d="M38.7914 49.6439H7.43533V54H38.7914V49.6439Z" fill="#3985DE"/>
<path d="M23.6954 12.0917H22.5688V15.2836H23.6954V12.0917Z" fill="#45485C"/>
<path d="M23.6954 39.2793H22.5688V42.4712H23.6954V39.2793Z" fill="#45485C"/>
<path d="M11.1155 26.737H7.92352V27.8636H11.1155V26.737Z" fill="#45485C"/>
<path d="M38.3407 26.737H35.1488V27.8636H38.3407V26.737Z" fill="#45485C"/>
<path d="M33.6843 0H12.5424L9.12518 4.80667H37.1391L33.6843 0Z" fill="#3985DE"/>
<path d="M26.4743 34.9987C26.249 34.9987 26.0237 34.886 25.911 34.6607L22.3811 28.2017C22.1933 27.9013 22.306 27.4882 22.644 27.3005C22.9444 27.1127 23.3574 27.2254 23.5452 27.5634L27.0751 34.0223C27.2629 34.3227 27.1502 34.7358 26.8123 34.9236C26.6996 34.9611 26.5869 34.9987 26.4743 34.9987Z" fill="#45485C"/>
<path d="M22.9068 28.2768C22.7191 28.2768 22.5313 28.2017 22.4186 28.0515C22.1933 27.7886 22.2309 27.3756 22.5313 27.1503L31.9944 19.5272C32.2573 19.3018 32.6704 19.3394 32.8957 19.6398C33.121 19.9027 33.0835 20.3157 32.783 20.5411L23.3199 28.1642C23.2072 28.2393 23.057 28.2768 22.9068 28.2768Z" fill="#45485C"/>
<path d="M24.7844 27.6009C24.7844 26.587 23.9583 25.7983 22.9819 25.7983C21.968 25.7983 21.1794 26.6245 21.1794 27.6009C21.1794 28.6148 22.0056 29.4034 22.9819 29.4034C23.9583 29.4034 24.7844 28.5772 24.7844 27.6009Z" fill="#45485C"/>
</svg>
