<svg width="43" height="43" viewBox="0 0 43 43" fill="none" xmlns="http://www.w3.org/2000/svg">
<circle cx="21.5" cy="21.5" r="20.5" stroke="#D2AC25" stroke-width="2"/>
<path d="M19.584 13.2H23.136L22.536 24.432H20.16L19.584 13.2ZM21.36 30.168C20.8 30.168 20.336 29.992 19.968 29.64C19.6 29.272 19.416 28.824 19.416 28.296C19.416 27.768 19.6 27.328 19.968 26.976C20.336 26.624 20.8 26.448 21.36 26.448C21.904 26.448 22.352 26.624 22.704 26.976C23.072 27.328 23.256 27.768 23.256 28.296C23.256 28.824 23.072 29.272 22.704 29.64C22.352 29.992 21.904 30.168 21.36 30.168Z" fill="#D2AC25"/>
</svg>
