<svg width="47" height="53" viewBox="0 0 47 53" fill="none" xmlns="http://www.w3.org/2000/svg">
<path d="M47 11.3882L30.0144 32.9098L18.2402 23.5484L35.1294 2.02682L47 11.3882Z" fill="#EEF311"/>
<path d="M20.267 23.2588L29.9179 30.883L44.9733 11.7742L35.3224 4.14995L20.267 23.2588ZM41.885 11.0986C41.4025 11.6777 41.499 12.5463 42.0781 13.0288C42.1746 13.0288 42.1746 13.1253 42.2711 13.1253L30.69 27.8912C30.69 27.7947 30.5935 27.7947 30.497 27.7947C29.9179 27.3122 29.0493 27.4087 28.5668 27.9877C28.5668 28.0843 28.4703 28.0842 28.4703 28.1807L23.1622 24.0309C23.2588 24.0309 23.2588 23.9343 23.2588 23.8378C23.7413 23.2588 23.6448 22.3902 23.0657 21.9076C22.9692 21.9076 22.9692 21.8112 22.8727 21.8112L34.5504 7.04523C34.5504 7.14173 34.6468 7.14174 34.7434 7.14174C35.3224 7.62429 36.191 7.52777 36.6735 6.94871C36.6735 6.8522 36.7701 6.85222 36.7701 6.75571L42.0781 10.9056C41.9816 11.0021 41.9815 11.0021 41.885 11.0986Z" fill="white"/>
<path d="M33.778 17.4683C33.585 17.4683 33.392 17.5648 33.199 17.6613L34.4536 18.6264C34.5501 18.4334 34.6466 18.2403 34.6466 18.0473C34.6466 17.8543 34.5501 17.7578 34.3571 17.5648C34.1641 17.4683 33.9711 17.4683 33.778 17.4683Z" fill="white"/>
<path d="M30.9792 17.0823C31.0757 17.1789 31.2687 17.1789 31.4617 17.1789C31.6547 17.1789 31.8477 17.0824 32.0408 16.9859L30.8826 16.1172C30.6896 16.3103 30.6896 16.5033 30.6896 16.6963C30.6896 16.8893 30.7861 16.9858 30.9792 17.0823Z" fill="white"/>
<path d="M29.1455 14.6695C27.6014 16.5997 27.9874 19.3985 29.9176 20.9426C31.8477 22.4868 34.6465 22.1007 36.1907 20.1706C37.7348 18.2404 37.3488 15.4416 35.4186 13.8975C33.4884 12.3533 30.6896 12.7393 29.1455 14.6695ZM35.6116 17.7578C35.7081 18.1439 35.6116 18.5299 35.4186 19.0124L36.0941 19.495L35.5151 20.1706L34.9361 19.688C34.743 19.9775 34.55 20.1706 34.357 20.2671C34.164 20.4601 33.971 20.5566 33.8744 20.5566L33.2954 19.688C33.3919 19.688 33.5849 19.5915 33.6814 19.495C33.8744 19.3985 33.9709 19.2055 34.164 19.0124L32.8128 17.9509C32.6198 18.0474 32.4268 18.1439 32.2338 18.2404C32.0408 18.3369 31.8478 18.3369 31.6547 18.4334C31.4617 18.4334 31.2687 18.4334 31.0757 18.4334C30.8827 18.3369 30.6896 18.2404 30.4966 18.1439C30.1106 17.8543 29.9176 17.4683 29.821 17.0822C29.7245 16.6962 29.8211 16.3102 30.1106 15.9242L29.5315 15.4416L30.1106 14.766L30.6897 15.2486C30.8827 15.0556 30.9792 14.8625 31.1722 14.766C31.3652 14.6695 31.4617 14.573 31.6547 14.4765L32.2338 15.3451C32.1373 15.4416 32.0408 15.4416 31.8477 15.5381C31.7512 15.6346 31.5582 15.7311 31.4617 15.9242L32.7163 16.9858C32.9093 16.8893 33.1024 16.7927 33.2954 16.6962C33.4884 16.5997 33.6814 16.5997 33.8744 16.5032C34.0675 16.5032 34.2605 16.5032 34.4535 16.5032C34.6465 16.5032 34.8396 16.6962 35.0326 16.7927C35.3221 16.9858 35.5151 17.3718 35.6116 17.7578Z" fill="white"/>
<path d="M13.9938 2.50934L24.0308 27.9878L10.037 33.4888L0 8.01035L13.9938 2.50934Z" fill="#EEF311"/>
<path d="M10.809 31.5586L22.2936 27.0227L13.3182 4.343L1.8336 8.87892L10.809 31.5586ZM11.195 6.75573C11.4845 7.4313 12.2566 7.81732 13.0287 7.5278C13.1252 7.5278 13.1252 7.43128 13.2217 7.43128L20.1704 24.8995C20.0738 24.8995 20.0739 24.8995 19.9774 24.996C19.3018 25.2855 18.9157 26.0576 19.2053 26.8296C19.2053 26.9262 19.3018 26.9262 19.3018 27.0227L13.0287 29.5319C13.0287 29.4354 13.0287 29.4354 12.9322 29.3389C12.6426 28.6633 11.8706 28.2773 11.0985 28.5668C11.002 28.5668 11.002 28.6633 10.9055 28.6633L3.95682 11.1952C4.05333 11.1952 4.05334 11.1952 4.14985 11.0986C4.82541 10.8091 5.21144 10.0371 4.92191 9.26498C4.92191 9.16847 4.8254 9.16846 4.8254 9.07195L11.0985 6.5627C11.195 6.5627 11.195 6.65922 11.195 6.75573Z" fill="white"/>
<path d="M12.6431 16.9859C12.5466 17.1789 12.5466 17.3719 12.5466 17.565L13.9942 16.9859C13.8977 16.7929 13.7047 16.5999 13.6082 16.5034C13.4152 16.4069 13.2222 16.4069 13.0291 16.5034C12.8361 16.6964 12.7396 16.7929 12.6431 16.9859Z" fill="white"/>
<path d="M10.9058 19.2056C11.0988 19.1091 11.1953 19.0126 11.1953 18.8196C11.2918 18.6266 11.2918 18.4336 11.2918 18.2405L9.94067 18.7231C10.0372 19.0126 10.2302 19.1091 10.3267 19.2056C10.5197 19.3021 10.7127 19.3021 10.9058 19.2056Z" fill="white"/>
<path d="M7.81751 19.4951C8.68609 21.8113 11.2918 22.8729 13.6081 22.0044C15.9243 21.1358 16.9859 18.53 16.1173 16.2138C15.2487 13.8976 12.643 12.836 10.3268 13.7046C8.10704 14.6697 6.94893 17.2754 7.81751 19.4951ZM13.8011 15.5383C14.1871 15.6348 14.4767 15.9243 14.7662 16.4068L15.5382 16.1173L15.8278 16.9859L15.1522 17.2754C15.2487 17.5649 15.3452 17.8545 15.3452 18.144C15.3452 18.4335 15.3452 18.6265 15.3452 18.7231L14.2836 18.8196C14.2836 18.7231 14.2836 18.53 14.2836 18.337C14.2836 18.144 14.1871 17.951 14.1871 17.6614L12.5465 18.337C12.5465 18.53 12.5464 18.7231 12.4499 18.9161C12.4499 19.1091 12.3534 19.3021 12.2569 19.4951C12.1604 19.6881 12.0639 19.8812 11.8709 19.9777C11.6779 20.1707 11.4849 20.2672 11.2918 20.3637C10.8093 20.5567 10.4232 20.5567 10.0372 20.4602C9.65117 20.3637 9.36165 20.0742 9.16863 19.6881L8.39657 19.9777L8.10702 19.1091L8.7826 18.8196C8.68609 18.53 8.68608 18.337 8.58957 18.144C8.58957 17.951 8.58957 17.758 8.58957 17.5649L9.55466 17.4684C9.55466 17.565 9.55466 17.758 9.55466 17.8545C9.55466 18.0475 9.55467 18.144 9.65118 18.337L11.1953 17.758C11.1953 17.5649 11.1953 17.3719 11.2918 17.1789C11.2918 16.9859 11.3883 16.7929 11.4848 16.5998C11.5814 16.4068 11.6779 16.2138 11.7744 16.1173C11.8709 15.9243 12.0639 15.8278 12.3535 15.7313C12.9325 15.4417 13.4151 15.3452 13.8011 15.5383Z" fill="white"/>
<path d="M31.4617 0.0965151L31.2686 27.5051L16.2132 27.4086L16.4062 0L31.4617 0.0965151Z" fill="#EEF311"/>
<path d="M17.661 25.8646L29.9177 25.9611L30.1107 1.64073L17.854 1.54424L17.661 25.8646ZM27.3119 2.99188C27.3119 3.76396 27.891 4.34301 28.6631 4.43952C28.7596 4.43952 28.7596 4.43952 28.8561 4.43952L28.7596 23.2588C28.6631 23.2588 28.6631 23.2588 28.5665 23.2588C27.7945 23.2588 27.2154 23.8379 27.1189 24.6099C27.1189 24.7065 27.1189 24.7064 27.1189 24.8029H20.3633C20.3633 24.7064 20.3633 24.7065 20.3633 24.6099C20.3633 23.8379 19.7842 23.2588 19.0121 23.1623C18.9156 23.1623 18.9156 23.1623 18.8191 23.1623L18.9156 4.343C19.0121 4.343 19.0121 4.343 19.1086 4.343C19.8807 4.343 20.4598 3.76396 20.5563 2.99188C20.5563 2.89537 20.5563 2.89536 20.5563 2.79885L27.3119 2.89537C27.3119 2.79886 27.3119 2.89537 27.3119 2.99188Z" fill="white"/>
<path d="M24.8024 13.0288C24.7059 13.2218 24.6094 13.3183 24.5128 13.6078H26.057C26.057 13.3183 25.9605 13.1253 25.864 13.0288C25.7675 12.9323 25.5745 12.8357 25.3815 12.8357C25.0919 12.8357 24.8989 12.9323 24.8024 13.0288Z" fill="white"/>
<path d="M22.2932 14.4764C22.4862 14.4764 22.5827 14.3799 22.7757 14.2834C22.8722 14.1869 22.9687 13.9939 23.0652 13.8008H21.6176C21.6176 14.0904 21.7141 14.2834 21.8106 14.3799C22.0036 14.3799 22.1001 14.4764 22.2932 14.4764Z" fill="white"/>
<path d="M19.398 13.6078C19.398 16.117 21.3282 18.0472 23.8374 18.1437C26.3467 18.1437 28.2768 16.2135 28.3733 13.7043C28.3733 11.195 26.4432 9.26488 23.9339 9.16837C21.4247 9.16837 19.398 11.1951 19.398 13.6078ZM26.4431 12.1602C26.7327 12.4497 26.9257 12.8357 27.0222 13.3183H27.7943V14.1868H27.0222C27.0222 14.4764 26.9257 14.7659 26.9257 15.0554C26.8292 15.345 26.8292 15.538 26.7327 15.6345L25.7676 15.2484C25.8641 15.1519 25.8641 14.9589 25.9606 14.7659C26.0571 14.5729 26.0571 14.3799 26.0571 14.0904H24.32C24.2234 14.2834 24.1269 14.4764 24.0304 14.6694C23.9339 14.8624 23.8374 14.9589 23.6444 15.1519C23.5479 15.2484 23.3549 15.4415 23.1618 15.4415C22.9688 15.538 22.7758 15.538 22.4863 15.538C22.0037 15.538 21.6177 15.4415 21.3282 15.1519C21.0386 14.8624 20.8456 14.5729 20.8456 14.0904H20.0736V13.2217H20.8456C20.8456 12.9322 20.9421 12.7392 20.9421 12.5462C21.0386 12.3532 21.0386 12.1602 21.1351 12.0637L22.1002 12.3532C22.1002 12.4497 22.0037 12.5462 22.0037 12.7392C22.0037 12.9322 21.9072 13.0287 21.9072 13.2217H23.5479C23.6444 13.0287 23.7409 12.8357 23.8374 12.6427C23.9339 12.4497 24.0304 12.2567 24.2234 12.1602C24.32 12.0637 24.513 11.8706 24.706 11.7741C24.899 11.6776 25.092 11.6776 25.3816 11.6776C25.6711 11.6776 26.1536 11.8706 26.4431 12.1602Z" fill="white"/>
<path d="M45 50.2517C45 51.7436 43.866 53 42.354 53H3.64605C2.20962 53 1 51.7436 1 50.2517V21.7483C1 20.2564 2.20962 19 3.64605 19H42.354C43.7904 19 45 20.2564 45 21.7483V50.2517Z" fill="#3985DE"/>
<path d="M43.3134 48.7246C43.3134 50.0387 42.2759 51.1454 40.8926 51.1454H5.48018C4.16604 51.1454 3.0594 50.0387 3.0594 48.7246V23.6177C3.0594 22.3036 4.16604 21.197 5.48018 21.197H40.8926C42.2068 21.197 43.3134 22.3036 43.3134 23.6177V48.7246Z" fill="#FEFFE4"/>
<path d="M40.8926 49.4854H40.3392V49.0013H40.8926C40.9617 49.0013 41.0309 49.0013 41.1 48.9321L41.4459 49.2779C41.3075 49.3471 41.1 49.4854 40.8926 49.4854ZM38.8868 49.4854H37.9185V49.0013H38.8868V49.4854ZM36.5352 49.4854H35.5668V49.0013H36.5352V49.4854ZM34.1144 49.4854H33.1461V49.0013H34.1144V49.4854ZM31.7628 49.4854H30.7945V49.0013H31.7628V49.4854ZM29.342 49.4854H28.3737V49.0013H29.342V49.4854ZM26.9904 49.4854H26.0221V49.0013H26.9904V49.4854ZM24.5696 49.4854H23.6013V49.0013H24.5696V49.4854ZM22.218 49.4854H21.2497V49.0013H22.218V49.4854ZM19.7972 49.4854H18.8289V49.0013H19.7972V49.4854ZM17.4456 49.4854H16.4773V49.0013H17.4456V49.4854ZM15.0249 49.4854H14.0566V49.0013H15.0249V49.4854ZM12.6733 49.4854H11.7049V49.0013H12.6733V49.4854ZM10.2525 49.4854H9.35333V49.0013H10.3216V49.4854H10.2525ZM7.90087 49.4854H6.93256V49.0013H7.90087V49.4854ZM5.48009 49.4854C5.0651 49.4854 4.71928 49.1396 4.71928 48.7938V48.5863H5.20344V48.7938C5.20344 48.9321 5.34177 49.0013 5.41093 49.0013L5.48009 49.4854ZM41.5842 47.6871H41.1692V46.7188H41.6534V47.6871H41.5842ZM5.27261 47.1338H4.78844V46.1655H5.27261V47.1338ZM41.5842 45.2664H41.1692V44.2981H41.6534V45.2664H41.5842ZM5.27261 44.713H4.78844V43.7447H5.27261V44.713ZM41.5842 42.9148H41.1692V41.9464H41.6534V42.9148H41.5842ZM5.27261 42.3614H4.78844V41.3931H5.27261V42.3614ZM41.5842 40.494H41.1692V39.5257H41.6534V40.494H41.5842ZM5.27261 39.9407H4.78844V38.9724H5.27261V39.9407ZM41.5842 38.1424H41.1692V37.1741H41.6534V38.1424H41.5842ZM5.27261 37.5891H4.78844V36.6207H5.27261V37.5891ZM41.5842 35.7216H41.1692V34.7533H41.6534V35.7216H41.5842ZM5.27261 35.1683H4.78844V34.2H5.27261V35.1683ZM41.5842 33.37H41.1692V32.4017H41.6534V33.37H41.5842ZM5.27261 32.8167H4.78844V31.8484H5.27261V32.8167ZM41.5842 30.9492H41.1692V29.9809H41.6534V30.9492H41.5842ZM5.27261 30.3959H4.78844V29.4276H5.27261V30.3959ZM41.5842 28.5976H41.1692V27.6293H41.6534V28.5976H41.5842ZM5.27261 28.0443H4.78844V27.076H5.27261V28.0443ZM41.5842 26.1768H41.1692V25.2085H41.6534V26.1768H41.5842ZM5.27261 25.6235H4.78844V24.6552H5.27261V25.6235ZM41.5842 23.8252H41.1692V23.6177C41.1692 23.4794 41.0309 23.4102 40.9617 23.4102V22.9261C41.3767 22.9261 41.6534 23.2719 41.6534 23.6177V23.8252H41.5842ZM5.34176 23.4794L4.99594 23.1336C5.13427 22.9953 5.34176 22.9261 5.48009 22.9261H6.03341V23.4102H5.48009C5.41093 23.4102 5.34176 23.4102 5.34176 23.4794ZM39.4401 23.4102H38.4718V22.9261H39.4401V23.4102ZM37.0885 23.4102H36.1202V22.9261H37.0885V23.4102ZM34.6677 23.4102H33.6994V22.9261H34.6677V23.4102ZM32.3161 23.4102H31.3478V22.9261H32.3161V23.4102ZM29.8953 23.4102H28.927V22.9261H29.8953V23.4102ZM27.5437 23.4102H26.5754V22.9261H27.5437V23.4102ZM25.1229 23.4102H24.1546V22.9261H25.1229V23.4102ZM22.7713 23.4102H21.803V22.9261H22.7713V23.4102ZM20.3506 23.4102H19.3822V22.9261H20.3506V23.4102ZM17.999 23.4102H17.0306V22.9261H17.999V23.4102ZM15.5782 23.4102H14.6099V22.9261H15.5782V23.4102ZM13.2266 23.4102H12.2583V22.9261H13.2266V23.4102ZM10.875 23.4102H9.90665V22.9261H10.875V23.4102ZM8.45419 23.4102H7.48588V22.9261H8.45419V23.4102Z" fill="#3985DE"/>
<path d="M33.077 29.7043C31.5554 29.7043 30.3795 30.8801 30.3795 32.4017V37.3816C30.3795 38.9032 31.5554 40.079 33.077 40.079H43.3134V29.7043H33.077Z" fill="#D1E8FF"/>
<path d="M33.077 31.0184C31.5554 31.0184 30.3795 32.1942 30.3795 33.7158V38.6957C30.3795 40.2173 31.5554 41.3931 33.077 41.3931H43.3134V31.0184H33.077Z" fill="#EEF311"/>
<path d="M38.4718 36.2058C38.4718 38.0732 36.9501 39.5257 35.0827 39.5257C33.2152 39.5257 31.6936 38.0041 31.6936 36.2058C31.6936 34.3383 33.2152 32.8167 35.0827 32.8167C37.0193 32.8167 38.4718 34.3383 38.4718 36.2058Z" fill="#3985DE"/>
<path d="M36.1202 34.8917C36.1202 35.7909 35.3594 36.5517 34.4603 36.5517C33.5611 36.5517 32.8003 35.7909 32.8003 34.8917C32.8003 33.9926 33.5611 33.2318 34.4603 33.2318C35.4286 33.2318 36.1202 33.9926 36.1202 34.8917Z" fill="#D1E8FF"/>
</svg>
