<svg width="46" height="43" viewBox="0 0 46 43" fill="none" xmlns="http://www.w3.org/2000/svg">
<path d="M16.7522 15.9414C16.7522 14.8874 17.0157 14.031 17.6086 13.4382C18.1356 12.9112 18.7943 12.6477 19.5848 12.6477C20.3094 12.6477 20.9681 12.9112 21.4951 13.504C22.0221 14.0969 22.2856 14.7556 22.2856 15.4803C22.2856 16.2707 22.088 16.9953 21.7586 17.7199C21.561 18.1152 21.0999 18.8398 20.4411 19.8279C20.2435 20.0914 19.98 20.4866 19.5848 21.0795L19.2554 21.5406C19.0578 21.87 18.926 22.0676 18.7943 22.2652C18.7284 22.3311 18.7284 22.397 18.7284 22.4628H22.1538V24.1755H16.6863V22.5946C16.6863 22.5287 16.8181 22.3311 17.0816 21.9358C17.2133 21.7382 17.3451 21.5406 17.4768 21.343L17.9379 20.6842C18.2014 20.3549 18.5967 19.762 19.1895 18.9715C19.7165 18.2469 20.1118 17.5223 20.3753 16.9295C20.5729 16.4025 20.7046 16.0072 20.7046 15.5461C20.7046 15.2168 20.6388 14.8874 20.4411 14.6898C20.2435 14.4263 19.98 14.2945 19.5848 14.2945C19.1237 14.2945 18.7284 14.558 18.5308 15.1509C18.4649 15.3485 18.3991 15.5461 18.3991 15.8096V16.2707H16.6863V15.9414H16.7522Z" fill="#F3F915"/>
<path d="M22.4174 19.9596L25.4475 12.7136H27.1602V19.9596H28.2801V21.6723H27.1602V24.1755H25.4475V21.6723H22.4174V19.9596ZM25.5134 19.9596V16.4025L24.0642 19.9596H25.5134Z" fill="#F3F915"/>
<path d="M46 17.3247L39.3468 28.8525L32.6935 17.3247H46Z" fill="#F3F915"/>
<path d="M22.8126 6.19209H22.2197V7.70717H22.8126V6.19209Z" fill="#F3F915"/>
<path d="M29.8219 8.79885L28.9542 10.0408L29.4402 10.3803L30.3079 9.13838L29.8219 8.79885Z" fill="#F3F915"/>
<path d="M34.5933 15.2955L33.1696 15.8135L33.3723 16.3706L34.796 15.8526L34.5933 15.2955Z" fill="#F3F915"/>
<path d="M33.3045 22.9329L33.1511 23.5056L34.6147 23.8975L34.7681 23.3248L33.3045 22.9329Z" fill="#F3F915"/>
<path d="M29.3296 28.9147L28.8734 29.2933L29.8411 30.4592L30.2973 30.0805L29.3296 28.9147Z" fill="#F3F915"/>
<path d="M36.9753 19.6303H41.9817C41.9817 8.82703 33.1547 0 22.3515 0C18.3332 0 14.6443 1.18572 11.5482 3.29367L13.722 7.90481C16.1593 6.12623 19.1237 5.07224 22.3515 5.07224C30.4539 5.00637 36.9753 11.5937 36.9753 19.6303Z" fill="#F3F915"/>
<path d="M36.9754 32.7391L33.2206 29.3795C31.3103 31.4875 28.8071 33.0026 26.1063 33.7272L28.2801 38.3383C31.6396 37.2843 34.6039 35.374 36.9754 32.7391Z" fill="#F3F915"/>
<path d="M22.5491 30.8287C22.5491 30.8287 21.6268 31.0264 20.3752 31.224C18.0697 31.5534 14.7101 32.0145 14.1173 31.6851C12.5363 30.6311 9.63788 25.0319 9.63788 25.0319C9.63788 25.0319 6.93707 19.3009 7.20056 17.3906C7.26644 16.7318 9.70375 14.3604 11.4165 12.7794C12.4046 11.8572 13.195 11.1985 13.195 11.1985L8.45216 1.25159C8.45216 1.25159 7.5958 1.64683 6.47595 2.56906C4.76324 3.88652 2.39181 6.38971 0.94259 10.408C-1.49473 17.1929 1.33783 23.912 3.31404 27.9962C5.29024 32.0803 8.51803 38.7336 15.303 41.105C19.6506 42.6201 23.3396 42.0931 25.4475 41.5002C26.6332 41.1709 27.3578 40.8415 27.3578 40.8415L22.5491 30.8287Z" fill="#3985DE"/>
</svg>
