<svg width="56" height="56" viewBox="0 0 56 56" fill="none" xmlns="http://www.w3.org/2000/svg">
<path d="M32.6667 23.3333H43.7824C47.2516 23.3333 49.508 26.9841 47.9565 30.0869L39.7899 46.4203C38.9993 48.0013 37.3835 49 35.6158 49H26.2411C25.8596 49 25.4795 48.9531 25.1092 48.8607L16.3333 46.6667M32.6667 23.3333V11.6667C32.6667 9.08934 30.5774 7 28 7H27.7772C26.6117 7 25.6667 7.94493 25.6667 9.11057C25.6667 10.7773 25.1734 12.4067 24.2487 13.7935L16.3333 25.6667V46.6667M32.6667 23.3333H28M16.3333 46.6667H11.6667C9.08934 46.6667 7 44.5774 7 42V28C7 25.4226 9.08934 23.3333 11.6667 23.3333H17.5" stroke="#26BC50" stroke-width="2" stroke-linecap="round" stroke-linejoin="round"/>
</svg>
