<svg width="47" height="50" viewBox="0 0 47 50" fill="none" xmlns="http://www.w3.org/2000/svg">
<path d="M33.6329 39.2552H13.4246L9.3111 46.1437H37.7464L33.6329 39.2552Z" fill="#F9FC84"/>
<path d="M27.3266 39.6289C36.2581 37.5199 41.7888 28.5699 39.6798 19.6384C37.5708 10.707 28.6208 5.17625 19.6894 7.28522C10.7579 9.39419 5.2272 18.3442 7.33617 27.2757C9.44514 36.2071 18.3952 41.7379 27.3266 39.6289Z" fill="#FEFFE4"/>
<path d="M23.5124 40.5938C14.0775 40.5938 6.40555 32.9218 6.40555 23.4869C6.40555 14.052 14.0775 6.38002 23.5124 6.38002C32.9473 6.38002 40.6193 14.052 40.6193 23.4869C40.6193 32.9218 32.9473 40.5938 23.5124 40.5938ZM23.5124 7.35942C14.6325 7.35942 7.38495 14.607 7.38495 23.4869C7.38495 32.3668 14.6325 39.6144 23.5124 39.6144C32.3923 39.6144 39.6399 32.3668 39.6399 23.4869C39.6725 14.607 32.4249 7.35942 23.5124 7.35942Z" fill="#231F20"/>
<path d="M23.5124 3.70298C12.5757 3.70298 3.69586 12.5829 3.69586 23.5195C3.69586 34.4562 12.5757 43.3361 23.5124 43.3361C34.449 43.3361 43.329 34.4562 43.329 23.5195C43.329 12.5502 34.449 3.70298 23.5124 3.70298ZM23.5124 40.1367C14.3387 40.1367 6.89524 32.6932 6.89524 23.5195C6.89524 14.3458 14.3387 6.90235 23.5124 6.90235C32.6861 6.90235 40.1296 14.3458 40.1296 23.5195C40.1296 32.6932 32.6861 40.1367 23.5124 40.1367Z" fill="#3985DE"/>
<path d="M35.25 35.25C41.7393 28.7607 41.7393 18.2394 35.25 11.75C28.7607 5.26067 18.2393 5.26067 11.75 11.75C5.26064 18.2394 5.26066 28.7607 11.75 35.25C18.2393 41.7393 28.7607 41.7394 35.25 35.25Z" fill="#FEFFE4"/>
<path d="M27.2994 14.3132C27.3974 13.9214 27.1035 13.5296 26.6465 13.3664C26.1568 13.2358 25.6997 13.3991 25.5691 13.7908L22.7942 23.0625C22.6962 23.4542 22.99 23.846 23.4471 24.0092C23.9368 24.1398 24.3939 23.9766 24.5245 23.5848L27.2994 14.3132Z" fill="#B1B431"/>
<path d="M23.4471 25.0866L27.6912 28.2207C28.0177 28.4492 28.5074 28.3186 28.8012 27.9268C29.095 27.5351 29.095 27.0127 28.7685 26.7842L24.1001 23.3237L23.4471 25.0866Z" fill="#B1B431"/>
<path d="M25.308 23.4869C25.308 22.5075 24.4918 21.6913 23.5124 21.6913C22.533 21.6913 21.7168 22.5075 21.7168 23.4869C21.7168 24.4663 22.533 25.2825 23.5124 25.2825C24.5244 25.3151 25.308 24.4989 25.308 23.4869Z" fill="#F9FC84"/>
<path d="M24.1 23.4869C24.1 23.1604 23.8389 22.8992 23.5124 22.8992C23.1859 22.8992 22.9248 23.1604 22.9248 23.4869C22.9248 23.8134 23.1859 24.0745 23.5124 24.0745C23.8389 24.0745 24.1 23.8134 24.1 23.4869Z" fill="#FEFFE4"/>
<path d="M41.3375 45.3275H5.71996V49.4737H41.3375V45.3275Z" fill="#3985DE"/>
<path d="M24.0348 8.92645H23.0227V11.9626H24.0348V8.92645Z" fill="#3985DE"/>
<path d="M24.0348 35.0438H23.0227V38.0799H24.0348V35.0438Z" fill="#3985DE"/>
<path d="M16.6702 10.6443L15.7938 11.1503L17.3119 13.7796L18.1883 13.2736L16.6702 10.6443Z" fill="#3985DE"/>
<path d="M29.7259 33.2109L28.8494 33.7169L30.3675 36.3462L31.2439 35.8402L29.7259 33.2109Z" fill="#3985DE"/>
<path d="M11.1577 15.7884L10.6517 16.6648L13.281 18.1829L13.787 17.3064L11.1577 15.7884Z" fill="#3985DE"/>
<path d="M33.7542 28.8289L33.2482 29.7053L35.8774 31.2234L36.3835 30.347L33.7542 28.8289Z" fill="#3985DE"/>
<path d="M11.9881 22.9972H8.95197V24.0092H11.9881V22.9972Z" fill="#3985DE"/>
<path d="M38.1055 22.9972H35.0693V24.0092H38.1055V22.9972Z" fill="#3985DE"/>
<path d="M13.2813 28.8377L10.652 30.3557L11.158 31.2322L13.7873 29.7141L13.2813 28.8377Z" fill="#3985DE"/>
<path d="M35.9017 15.7676L33.2724 17.286L33.7785 18.1624L36.4078 16.644L35.9017 15.7676Z" fill="#3985DE"/>
<path d="M17.3075 33.2548L15.7894 35.8841L16.6659 36.3901L18.1839 33.7608L17.3075 33.2548Z" fill="#3985DE"/>
<path d="M30.3752 10.6425L28.8571 13.2718L29.7336 13.7778L31.2516 11.1485L30.3752 10.6425Z" fill="#3985DE"/>
</svg>
